<?xml version="1.0" encoding="UTF-8" standalone="no"?>
<svg width="349px" height="364px" viewBox="0 0 349 364" version="1.1" xmlns="http://www.w3.org/2000/svg" xmlns:xlink="http://www.w3.org/1999/xlink">
    <!-- Generator: Sketch 42 (36781) - http://www.bohemiancoding.com/sketch -->
    <title>Page 1</title>
    <desc>Created with Sketch.</desc>
    <defs>
        <polygon id="path-1" points="0 0.205850163 0 34.9750033 49.2766821 34.9750033 49.2766821 0.205850163 3.14108936e-20 0.205850163"></polygon>
        <polygon id="path-3" points="17.6044252 0.553192182 0.977291318 0.553192182 0.977291318 55.5137394 17.6044252 55.5137394 17.6044252 0.553192182"></polygon>
        <polygon id="path-5" points="0.00374175489 46.0240228 29.162107 46.0240228 29.162107 0.0791849213 0.00374175489 0.0791849213"></polygon>
    </defs>
    <g id="Page-1" stroke="none" stroke-width="1" fill="none" fill-rule="evenodd">
        <g id="HOLDING-PAGE" transform="translate(-545.000000, -207.000000)">
            <g id="Page-1" transform="translate(719.500000, 389.000000) rotate(-180.000000) translate(-719.500000, -389.000000) translate(545.000000, 207.000000)">
                <path d="M24.0878006,245.902594 C23.970241,251.871549 28.6831015,255.498167 34.2316828,252.906399 L51.1497927,245 L56,255.310223 L24.5580391,270 L20.801951,262.01239 L22.9319917,259.433384 C16.882909,257.763933 13.7460458,251.982923 14.0160837,246.694974 L24.0878006,245.902594 Z" id="Fill-1" fill="#1D1C1B"></path>
                <path d="M21.4673614,205.363354 C26.2433706,205.081028 29.9733897,201.8731 29.7051,196.987686 C29.4379423,192.102272 25.3807683,189.355477 20.6047591,189.637803 C15.8310139,189.920129 12.0262812,193.132762 12.2934389,198.016999 C12.5617286,202.903589 16.6924841,205.645679 21.4673614,205.363354 M19.9696936,178.033034 C29.8137743,177.450736 38.3130104,184.605344 38.9616602,196.439504 C39.6103099,208.272486 31.9476395,216.38465 22.1035588,216.966947 C12.2594782,217.549244 3.68666045,210.399341 3.0380107,198.566358 C2.38936095,186.733376 10.1244809,178.616507 19.9696936,178.033034" id="Fill-3" fill="#1D1C1B"></path>
                <g id="Group-7" transform="translate(0.000000, 119.000000)">
                    <mask id="mask-2" fill="white">
                        <use xlink:href="#path-1"></use>
                    </mask>
                    <g id="Clip-6"></g>
                    <path d="M17.9306533,0.205850163 L26.8978921,3.44545928 L23.0180375,15.0649055 L33.905503,18.9975114 C37.0378946,20.1292052 39.4703364,17.8561759 39.3950106,14.2622345 L39.3347501,11.3359805 L48.9868736,11.0913225 L49.2279159,14.9106384 C49.9556784,25.6237655 42.4856834,34.620671 30.3165215,30.2240586 L19.2853577,26.2420391 L16.3696724,34.9750033 L7.40359246,31.7365993 L10.3192777,23.0036352 L-0.000347657228,19.2759153 L3.73233212,8.10119218 L14.0507987,11.8277068 L17.9306533,0.205850163 Z" id="Fill-5" fill="#1D1C1B" mask="url(#mask-2)"></path>
                </g>
                <path d="M56.7279781,93.8539458 C60.510433,97.2911671 65.6631495,97.8318536 69.060332,94.1230822 C72.4575145,90.411897 71.4434482,85.3502024 67.6609933,81.9129811 C63.8785383,78.4769668 58.666456,77.8819702 55.2704851,81.5919485 C51.8733026,85.30072 52.9455232,90.4167245 56.7279781,93.8539458 M57.4015992,70.9990795 L56.0822227,67.782719 L62.2926211,61 L89,85.2681339 L82.7908131,92.049646 L79.454208,91.0370657 C79.6795561,95.9116924 77.1353039,99.9728755 75.1713835,102.117518 C68.1649975,109.769198 56.6904201,109.961093 48.6602755,102.664239 C40.6313425,95.3685921 39.711777,83.9152108 46.718163,76.2647383 C48.6820834,74.1188888 52.505731,71.222354 57.4015992,70.9990795" id="Fill-8" fill="#1D1C1B"></path>
                <path d="M118.801985,27.1360249 L122.834046,35.9765872 L111.849135,41.0140935 L116.745125,51.750249 C118.152263,54.8387484 121.483714,55.0927602 123.979639,52.5882507 L126.011646,50.5537819 L133,57.5307993 L130.459103,60.3071252 C123.371339,68.1387619 111.715404,68.7346215 106.244251,56.7355285 L101.285538,45.8593104 L93.0308776,49.6469358 L89,40.8051865 L97.2546599,37.018748 L92.6154819,26.8440299 L103.180263,22 L107.818258,32.1735311 L118.801985,27.1360249 Z" id="Fill-10" fill="#1D1C1B"></path>
                <g id="Group-14" transform="translate(147.000000, 0.000000)">
                    <mask id="mask-4" fill="white">
                        <use xlink:href="#path-3"></use>
                    </mask>
                    <g id="Clip-13"></g>
                    <path d="M6.43199202,55.5137394 L2.72807508,19.7671596 L13.8993634,18.4836091 L17.6044252,54.2325993 L6.43199202,55.5137394 Z M13.0017217,6.21455375 C13.3726858,9.796443 11.0667542,12.819114 7.66395945,13.2108078 C4.26001971,13.6012964 1.3873373,11.1727948 1.01637313,7.58970033 C0.645408958,4.00901629 2.9524855,0.983934853 6.35642524,0.594651466 C9.75922003,0.201752443 12.6307575,2.63145928 13.0017217,6.21455375 L13.0017217,6.21455375 Z" id="Fill-12" fill="#1D1C1B" mask="url(#mask-4)"></path>
                </g>
                <path d="M200.844532,36.6401888 C199.690185,41.6472612 201.647404,46.4496151 206.403504,47.6279648 C211.160781,48.805096 214.999986,45.4406455 216.155509,40.4323546 C217.308681,35.4228451 215.369095,30.5461589 210.612994,29.3665906 C205.856894,28.1894594 201.997705,31.6318979 200.844532,36.6401888 M227.45213,43.2301736 C225.072904,53.5538331 215.687657,60.1889047 204.16769,57.3350319 C192.646548,54.4835962 187.16751,44.167248 189.546736,33.8423698 C191.925962,23.5162731 201.328841,16.8068692 212.849984,19.6595235 C224.369951,22.5121778 229.831356,32.906514 227.45213,43.2301736" id="Fill-15" fill="#1D1C1B"></path>
                <path d="M285.034292,78.3277525 L272.276776,94 L262.946364,86.9888229 L274.883306,72.3252945 C277.734802,68.8226046 278.095613,65.0752713 274.511634,62.383035 C270.927656,59.6907986 265.972835,60.2716817 262.735187,64.2485855 L251.330412,78.2605046 L242,71.2493275 L264.182053,44 L271.410346,49.43201 L270.652522,52.6900566 C275.233257,52.6877377 279.42784,54.0211019 282.824776,56.5730452 C290.238905,62.1465077 290.978629,71.0255542 285.034292,78.3277525" id="Fill-17" fill="#1D1C1B"></path>
                <path d="M90.3816707,309.600318 C85.8121758,301.558825 77.3080317,301.916198 72.1711287,308.380196 L60.5532169,323 L56,319.124248 L77.5556914,292 L80.8833999,294.832512 L78.0893805,299.948841 C83.5820762,297.838295 90.9490788,299.651632 95,306.744944 L90.3816707,309.600318 Z" id="Fill-19" fill="#1D1C1B"></path>
                <path d="M114.407359,335.595864 C112.162169,343.463967 115.634501,350.639946 122.159832,352.843065 C128.756005,355.069793 135.354462,351.292308 137.599652,343.425447 C139.824274,335.634384 136.37251,328.381364 129.77748,326.154636 C123.252148,323.951518 116.630839,327.804801 114.407359,335.595864 M143.132073,345.291823 C140.226466,355.474879 130.969202,361.48282 120.684749,358.011013 C110.400296,354.539206 105.969331,343.910059 108.874938,333.728245 C111.781687,323.546432 120.968111,317.514882 131.252564,320.986689 C141.535874,324.457253 146.038822,335.111252 143.132073,345.291823" id="Fill-21" fill="#1D1C1B"></path>
                <g id="Group-25" transform="translate(170.000000, 317.000000)">
                    <mask id="mask-6" fill="white">
                        <use xlink:href="#path-5"></use>
                    </mask>
                    <g id="Clip-24"></g>
                    <path d="M26.0891184,9.87404106 L26.5246141,14.9945086 L14.3517497,16.051881 L15.9501241,34.8521043 C16.3003887,38.978925 19.7423228,41.8359547 24.8036471,39.5489148 L26.9320887,38.5942114 L29.162107,43.3276051 L26.8270093,44.5313103 C18.7078745,48.4704946 10.8129091,44.3059106 10.0785209,35.6699158 L8.45329285,16.5640458 L0.43923748,17.2603067 L0.00374175489,12.1398391 L8.01779713,11.4435782 L7.09543353,0.591349688 L12.9927228,0.0791849213 L13.916254,10.9314135 L26.0891184,9.87404106 Z" id="Fill-23" fill="#1D1C1B" mask="url(#mask-6)"></path>
                </g>
                <path d="M235.470084,333.566666 C238.806471,340.263073 245.833016,343.396389 252.331231,339.812483 C258.629287,336.34 260.38185,328.542831 256.97564,321.705615 C253.56943,314.868398 246.478881,311.949358 240.180825,315.423065 C233.68261,319.006971 232.133698,326.87026 235.470084,333.566666 M252.388253,311.296737 L250.347088,305.143977 L254.23275,303 L270,334.650287 L266.114337,336.794263 L262.500985,331.597783 C262.091355,336.946093 258.905088,342.207468 254.081467,344.868154 C244.969535,349.893214 234.809091,345.612607 230.244979,336.448974 C225.67854,327.284117 228.114207,316.05732 237.224975,311.03226 C242.048596,308.371574 247.93935,308.538096 252.388253,311.296737" id="Fill-26" fill="#1D1C1B"></path>
                <path d="M289.519448,270 L293.546505,273.135397 L285.474326,282.1706 L300.262683,293.684667 C303.509378,296.211871 308.079558,295.773432 310.0967,290.778607 L310.949318,288.683097 L316,290.331175 L315.177488,292.735841 C312.136722,300.931267 303.386543,303.538289 296.593292,298.248923 L281.564082,286.548239 L276.249667,292.496386 L272.222609,289.36099 L277.537025,283.411718 L269,276.765442 L272.911448,272.388927 L281.447269,279.035204 L289.519448,270 Z" id="Fill-28" fill="#1D1C1B"></path>
                <path d="M333.81893,255 L302.891653,242.697028 L305.072723,237.43201 L336,249.734982 L333.81893,255 Z M297.708323,233.323548 C299.843644,234.173034 300.757475,236.423386 299.890537,238.515721 C299.023599,240.608055 296.768187,241.597628 294.632865,240.748142 C292.428921,239.87176 291.446467,237.594511 292.313405,235.502176 C293.180344,233.409842 295.504379,232.447166 297.708323,233.323548 L297.708323,233.323548 Z" id="Fill-30" fill="#1D1C1B"></path>
                <g id="Group-34" transform="translate(311.000000, 175.000000)" fill="#1D1C1B">
                    <path d="M18.8369079,31.9069862 C26.6218224,32.2042818 32.2481123,26.9927956 32.5160309,19.970509 C32.7874747,12.8730171 27.5748134,7.2467272 19.7898989,6.94825651 C12.0813647,6.65448616 6.37869454,11.8636221 6.10842581,18.9622891 C5.83933217,25.9834007 11.1283737,31.6132158 18.8369079,31.9069862 M20.0178647,0.995293974 C30.0930129,1.38072068 38.0530146,9.09865554 37.6299853,20.1655725 C37.2069559,31.2324894 28.6840903,38.2453754 18.6101172,37.8599487 C8.53496897,37.4756971 0.571442101,29.8341425 0.994471417,18.7660505 C1.41750073,7.69913355 9.94271653,0.611042345 20.0178647,0.995293974" id="Fill-32"></path>
                </g>
                <path d="M310.11749,110.872464 L328.166763,103 L330.522817,108.643243 L312.968435,116.300288 C306.315836,119.20239 304.053314,124.806906 306.680492,131.102456 C309.096928,136.890926 316.144965,140.744258 323.293637,137.626738 L339.643945,130.494927 L342,136.138171 L310.21931,150 L308.496667,145.87679 L313.837452,142.434932 C308.534553,141.155732 303.870986,137.801009 301.394169,131.868524 C297.740508,123.113812 301.481781,114.63987 310.11749,110.872464" id="Fill-35" fill="#1D1C1B"></path>
            </g>
        </g>
    </g>
</svg>