<?xml version="1.0" encoding="UTF-8" standalone="no"?>
<svg width="261px" height="262px" viewBox="0 0 261 262" version="1.1" xmlns="http://www.w3.org/2000/svg" xmlns:xlink="http://www.w3.org/1999/xlink">
    <!-- Generator: Sketch 42 (36781) - http://www.bohemiancoding.com/sketch -->
    <title>Page 1 Copy</title>
    <desc>Created with Sketch.</desc>
    <defs>
        <polygon id="path-1" points="0 0.148669562 0 25.2597246 36.8871163 25.2597246 36.8871163 0.148669562 2.35132975e-20 0.148669562"></polygon>
        <polygon id="path-3" points="13.486431 0.395137273 0.748685161 0.395137273 0.748685161 39.652671 13.486431 39.652671 13.486431 0.395137273"></polygon>
        <polygon id="path-5" points="0.740600035 33.2939739 22.2547855 33.2939739 22.2547855 0.057282709 0.740600035 0.057282709"></polygon>
    </defs>
    <g id="Page-1" stroke="none" stroke-width="1" fill="none" fill-rule="evenodd">
        <g id="Page-1-Copy">
            <path d="M17.8883327,176.649868 C17.8010293,180.947515 21.3009427,183.55868 25.4214878,181.692608 L37.9853902,176 L41.5873016,183.423361 L18.237546,194 L15.4481609,188.248921 L17.0299938,186.392037 C12.5377612,185.190032 10.2082313,181.027704 10.4087697,177.220381 L17.8883327,176.649868 Z" id="Fill-1" fill="#1D1C1B"></path>
            <path d="M15.9461712,147.645485 C19.5323898,147.442789 22.3331934,145.139662 22.1317395,141.632185 C21.9311357,138.124708 18.8846774,136.15265 15.2984589,136.355346 C11.7139403,136.558041 8.85703568,138.864547 9.05763952,142.371179 C9.25909337,145.8795 12.3608027,147.84818 15.9461712,147.645485 M14.8215997,128.023716 C22.2133411,127.605657 28.5952631,132.742299 29.0823224,141.238618 C29.5693818,149.734093 23.8156217,155.55821 16.4238804,155.976269 C9.03213903,156.394329 2.59496594,151.261065 2.10790662,142.765591 C1.62084731,134.270116 7.42900838,128.44262 14.8215997,128.023716" id="Fill-3" fill="#1D1C1B"></path>
            <g id="Group-7" transform="translate(0.000000, 86.000000)">
                <mask id="mask-2" fill="white">
                    <use xlink:href="#path-1"></use>
                </mask>
                <g id="Clip-6"></g>
                <path d="M13.4223748,0.148669562 L20.1349935,2.48838726 L17.2306452,10.8802096 L25.3806908,13.7204249 C27.7255097,14.5377593 29.5463661,12.896127 29.4899794,10.3005027 L29.44487,8.187097 L36.6701739,8.01039957 L36.8506114,10.7687944 C37.3953935,18.5060528 31.8035687,25.003818 22.6940818,21.8284868 L14.4364677,18.9525838 L12.253869,25.2597246 L5.54211778,22.9208773 L7.72471649,16.6137365 L-0.000260246268,13.9214944 L2.79391719,5.85086102 L10.5180264,8.54223272 L13.4223748,0.148669562 Z" id="Fill-5" fill="#1D1C1B" mask="url(#mask-2)"></path>
            </g>
            <path d="M42.2675472,67.7666842 C45.1123723,70.2531847 48.9877859,70.6443196 51.5428434,67.9613786 C54.097901,65.2766914 53.3352108,61.6150401 50.4903857,59.1285396 C47.6455606,56.6429121 43.7254973,56.2124891 41.171351,58.8963032 C38.6162934,61.5792442 39.4227221,65.2801837 42.2675472,67.7666842 M42.7741848,51.2333766 L41.7818676,48.9066478 L46.4527752,44 L66.5396825,61.5556714 L61.8696862,66.461446 L59.3601896,65.7289412 C59.5296763,69.2552668 57.6161168,72.193144 56.1390311,73.7445876 C50.8694527,79.279845 42.2392994,79.418663 36.1997412,74.1400879 C30.1610941,68.8623858 29.4694791,60.576961 34.7390574,55.0425767 C36.2161431,53.49026 39.0919497,51.3948944 42.7741848,51.2333766" id="Fill-8" fill="#1D1C1B"></path>
            <path d="M89.0739396,19.7352908 L92.1227131,26.1647907 L83.8166622,29.8284316 L87.5186803,37.6365447 C88.5826638,39.8827261 91.1016827,40.067462 92.9889334,38.2460005 L94.5254007,36.7663868 L99.8095238,41.8405813 L97.8882686,43.8597274 C92.5289776,49.5554632 83.7155435,49.9888157 79.5786254,41.2622026 L75.8291799,33.3522257 L69.5875612,36.1068624 L66.5396825,29.6764993 L72.7813013,26.9227258 L69.2734668,19.5229309 L77.2618439,16 L80.7687835,23.3989317 L89.0739396,19.7352908 Z" id="Fill-10" fill="#1D1C1B"></path>
            <g id="Group-14" transform="translate(110.206349, 0.000000)">
                <mask id="mask-4" fill="white">
                    <use xlink:href="#path-3"></use>
                </mask>
                <g id="Clip-13"></g>
                <path d="M4.92743248,39.652671 L2.08992886,14.1193997 L10.6480503,13.2025779 L13.486431,38.737571 L4.92743248,39.652671 Z M9.96038326,4.43896696 C10.2445722,6.99745928 8.47803979,9.15651 5.87122039,9.4362913 C3.26352387,9.71521173 1.06281395,7.98056771 0.778625027,5.42121452 C0.494436102,2.86358306 2.26184562,0.70281061 4.86954215,0.424751047 C7.47636155,0.144108888 9.67619434,1.87961377 9.96038326,4.43896696 L9.96038326,4.43896696 Z" id="Fill-12" fill="#1D1C1B" mask="url(#mask-4)"></path>
            </g>
            <path d="M150.238043,26.6647509 C149.376393,30.2595721 150.837337,33.707416 154.387475,34.5534106 C157.938491,35.3985304 160.804222,32.9830276 161.66675,29.3873315 C162.527522,25.7907606 161.07974,22.28955 157.529602,21.4426804 C153.979464,20.5975606 151.098816,23.0690549 150.238043,26.6647509 M170.098985,31.396022 C168.323039,38.8078802 161.317527,43.5715213 152.718577,41.522587 C144.11875,39.4754024 140.028984,32.0687934 141.80493,24.6560604 C143.580877,17.2424525 150.59955,12.4254446 159.199377,14.4735041 C167.798327,16.5215635 171.874931,23.9841639 170.098985,31.396022" id="Fill-15" fill="#1D1C1B"></path>
            <path d="M213.271317,56.7159818 L203.676252,68 L196.658748,62.9519525 L205.636651,52.394212 C207.781291,49.8722753 208.052661,47.1741953 205.357112,45.2357852 C202.661563,43.297375 198.93499,43.7156108 196.49992,46.5789815 L187.922265,56.6675633 L180.904762,51.6195158 L197.588123,32 L203.0246,35.9110472 L202.454632,38.2568407 C205.899853,38.2551711 209.054643,39.2151934 211.609515,41.0525925 C217.185762,45.0654856 217.742116,51.458399 213.271317,56.7159818" id="Fill-17" fill="#1D1C1B"></path>
            <path d="M67.2511128,222.490548 C63.8402647,216.783682 57.4924421,217.037302 53.6580586,221.624656 L44.9859991,232 L41.5873016,229.249466 L57.6773048,210 L60.1612354,212.01017 L58.0756711,215.641113 C62.175632,214.143306 67.6746481,215.430191 70.6984127,220.464154 L67.2511128,222.490548 Z" id="Fill-19" fill="#1D1C1B"></path>
            <path d="M85.9064075,241.19703 C84.2205355,246.845925 86.8278459,251.99791 91.727599,253.579637 C96.680545,255.178313 101.635207,252.466273 103.321079,246.81827 C104.991508,241.224686 102.39964,236.01739 97.4475524,234.418713 C92.5477993,232.836987 87.5759784,235.603447 85.9064075,241.19703 M107.475273,248.158232 C105.293506,255.469144 98.3423943,259.782537 90.6199854,257.289958 C82.8975765,254.797378 79.5704459,247.166196 81.7522131,239.856176 C83.9348381,232.546156 90.832757,228.215813 98.5551659,230.708392 C106.276717,233.200079 109.657898,240.849104 107.475273,248.158232" id="Fill-21" fill="#1D1C1B"></path>
            <g id="Group-25" transform="translate(126.841270, 228.000000)">
                <mask id="mask-6" fill="white">
                    <use xlink:href="#path-5"></use>
                </mask>
                <g id="Clip-24"></g>
                <path d="M19.987414,7.14292332 L20.3087399,10.8470913 L11.327123,11.611999 L12.5064664,25.2121606 C12.7649054,28.1975202 15.3044993,30.2643077 19.0389429,28.6098533 L20.6093906,27.9192167 L22.2547855,31.3433739 L20.5318589,32.2141394 C14.5412428,35.0637621 8.71602766,32.0510843 8.17416721,25.8037689 L6.97501024,11.9825012 L1.06192586,12.4861793 L0.740600035,8.78201126 L6.65368442,8.2783332 L5.97312838,0.427784881 L10.3243797,0.057282709 L11.0057972,7.90783103 L19.987414,7.14292332 Z" id="Fill-23" fill="#1D1C1B" mask="url(#mask-6)"></path>
            </g>
            <path d="M176.055448,240.230303 C178.53315,245.100417 183.751276,247.379192 188.577048,244.772715 C193.254175,242.247273 194.555682,236.576604 192.026127,231.604083 C189.496572,226.631562 184.230915,224.508624 179.553787,227.034956 C174.728015,229.641434 173.577746,235.360189 176.055448,240.230303 M188.619395,224.03399 L187.103563,219.559256 L189.989174,218 L201.698413,241.01839 L198.812801,242.577646 L196.129416,238.798388 C195.825213,242.688067 193.458994,246.514522 189.876826,248.449566 C183.110029,252.104155 175.564574,248.990987 172.175126,242.326527 C168.78395,235.661176 170.59275,227.496233 177.358683,223.841643 C180.940851,221.906599 185.315504,222.027706 188.619395,224.03399" id="Fill-26" fill="#1D1C1B"></path>
            <path d="M217.13131,194 L220.160104,196.22512 L214.088931,202.6372 L225.211414,210.808473 C227.653288,212.601973 231.090569,212.290823 232.607683,208.746108 L233.248947,207.258972 L237.047619,208.428576 L236.428999,210.135113 C234.142006,215.951221 227.560902,217.801366 222.451625,214.047623 L211.147994,205.743911 L207.150965,209.965177 L204.122172,207.740057 L208.119201,203.517993 L201.698413,198.801281 L204.640255,195.695368 L211.060138,200.41208 L217.13131,194 Z" id="Fill-28" fill="#1D1C1B"></path>
            <path d="M249.953996,184 L226.568869,175.052384 L228.218047,171.22328 L251.603175,180.170896 L249.953996,184 Z M222.649583,168.235308 C224.26417,168.853116 224.955147,170.489735 224.299627,172.011433 C223.644106,173.533131 221.938716,174.25282 220.324129,173.635012 C218.657655,172.997644 217.914789,171.341462 218.570309,169.819765 C219.22583,168.298067 220.983109,167.597939 222.649583,168.235308 L222.649583,168.235308 Z" id="Fill-30" fill="#1D1C1B"></path>
            <g id="Group-34" transform="translate(232.888889, 126.000000)" fill="#1D1C1B">
                <path d="M14.0605979,22.9075798 C19.8715597,23.1210228 24.0712405,19.379443 24.2712253,14.3378013 C24.4738415,9.24216612 20.5829092,5.2027785 14.7719474,4.98849186 C9.01799875,4.7775798 4.76130476,8.51747231 4.55956571,13.6139511 C4.35870378,18.6547492 8.30664931,22.6966678 14.0605979,22.9075798 M14.9421099,0.714570033 C22.4625909,0.991286645 28.4042445,6.53236808 28.088479,14.4778469 C27.7727136,22.4233257 21.4109164,27.4582182 13.8913125,27.1815016 C6.37083154,26.9056287 0.426546526,21.4193844 0.742311998,13.4730619 C1.05807747,5.52758306 7.42162886,0.438697068 14.9421099,0.714570033" id="Fill-32"></path>
            </g>
            <path d="M232.084984,79.6949737 L245.488923,74 L247.2386,78.0823463 L234.202182,83.6214852 C229.261761,85.7208775 227.581542,89.7752086 229.532565,94.3294366 C231.327084,98.51684 236.56117,101.304357 241.869991,99.0491297 L254.012227,93.8899475 L255.761905,97.9722937 L232.160599,108 L230.881312,105.017252 L234.847541,102.527397 C230.909447,101.602019 227.44614,99.1751983 225.606781,94.8836131 C222.893461,88.5504171 225.671844,82.4203317 232.084984,79.6949737" id="Fill-35" fill="#1D1C1B"></path>
        </g>
    </g>
</svg>