<?xml version="1.0" encoding="UTF-8" standalone="no"?>
<svg width="251px" height="262px" viewBox="0 0 251 262" version="1.1" xmlns="http://www.w3.org/2000/svg" xmlns:xlink="http://www.w3.org/1999/xlink">
    <!-- Generator: Sketch 42 (36781) - http://www.bohemiancoding.com/sketch -->
    <title>Page 1</title>
    <desc>Created with Sketch.</desc>
    <defs>
        <polygon id="path-1" points="0 0.148669562 0 25.2597246 35.4792111 25.2597246 35.4792111 0.148669562 2.26158434e-20 0.148669562"></polygon>
        <polygon id="path-3" points="12.9716818 0.395137273 0.720109392 0.395137273 0.720109392 39.652671 12.9716818 39.652671 12.9716818 0.395137273"></polygon>
        <polygon id="path-5" points="0.712332858 33.2939739 21.4053662 33.2939739 21.4053662 0.057282709 0.712332858 0.057282709"></polygon>
    </defs>
    <g id="Page-1" stroke="none" stroke-width="1" fill="none" fill-rule="evenodd">
        <g>
            <path d="M17.2055719,176.649868 C17.1216007,180.947515 20.4879296,183.55868 24.451202,181.692608 L36.5355662,176 L40,183.423361 L17.5414565,194 L14.8585364,188.248921 L16.379994,186.392037 C12.0592207,185.190032 9.81860414,181.027704 10.0114884,177.220381 L17.2055719,176.649868 Z" id="Fill-1" fill="#1D1C1B"></path>
            <path d="M15.3375388,147.645485 C18.7868788,147.442789 21.4807814,145.139662 21.2870166,141.632185 C21.0940694,138.124708 18.1638882,136.15265 14.7145482,136.355346 C11.2668434,136.558041 8.51898089,138.864547 8.71192809,142.371179 C8.90569286,145.8795 11.8890163,147.84818 15.3375388,147.645485 M14.2558898,128.023716 C21.3655036,127.605657 27.5038409,132.742299 27.9723101,141.238618 C28.4407794,149.734093 22.9066285,155.55821 15.7970147,155.976269 C8.6874009,156.394329 2.49592143,151.261065 2.02745217,142.765591 C1.55898291,134.270116 7.14545844,128.44262 14.2558898,128.023716" id="Fill-3" fill="#1D1C1B"></path>
            <g id="Group-7" transform="translate(0.000000, 86.000000)">
                <mask id="mask-2" fill="white">
                    <use xlink:href="#path-1"></use>
                </mask>
                <g id="Clip-6"></g>
                <path d="M12.9100704,0.148669562 L19.3664823,2.48838726 L16.572987,10.8802096 L24.4119622,13.7204249 C26.6672841,14.5377593 28.4186422,12.896127 28.3644077,10.3005027 L28.32102,8.187097 L35.270549,8.01039957 L35.4440995,10.7687944 C35.9680884,18.5060528 30.5896921,25.003818 21.8278955,21.8284868 L13.8854575,18.9525838 L11.7861641,25.2597246 L5.33058657,22.9208773 L7.42987998,16.6137365 L-0.000250313205,13.9214944 L2.68727913,5.85086102 L10.116575,8.54223272 L12.9100704,0.148669562 Z" id="Fill-5" fill="#1D1C1B" mask="url(#mask-2)"></path>
            </g>
            <path d="M40.654282,67.7666842 C43.390526,70.2531847 47.1180231,70.6443196 49.5755593,67.9613786 C52.0330956,65.2766914 51.2995157,61.6150401 48.5632717,59.1285396 C45.8270277,56.6429121 42.0565852,56.2124891 39.5999254,58.8963032 C37.1423891,61.5792442 37.918038,65.2801837 40.654282,67.7666842 M41.1415824,51.2333766 L40.1871398,48.9066478 L44.6797685,44 L64,61.5556714 L59.5082478,66.461446 L57.0945335,65.7289412 C57.2575512,69.2552668 55.4170283,72.193144 53.99632,73.7445876 C48.9278706,79.279845 40.6271124,79.418663 34.8180717,74.1400879 C29.0099073,68.8623858 28.3446898,60.576961 33.4131392,55.0425767 C34.8338476,53.49026 37.5998905,51.3948944 41.1415824,51.2333766" id="Fill-8" fill="#1D1C1B"></path>
            <path d="M85.6741709,19.7352908 L88.606579,26.1647907 L80.6175529,29.8284316 L84.1782727,37.6365447 C85.2016461,39.8827261 87.6245192,40.067462 89.4397375,38.2460005 L90.917561,36.7663868 L96,41.8405813 L94.1520751,43.8597274 C88.9973372,49.5554632 80.5202937,49.9888157 76.5412733,41.2622026 L72.9349364,33.3522257 L66.9315474,36.1068624 L64,29.6764993 L70.003389,26.9227258 L66.6294414,19.5229309 L74.3129186,16 L77.6860055,23.3989317 L85.6741709,19.7352908 Z" id="Fill-10" fill="#1D1C1B"></path>
            <g id="Group-14" transform="translate(106.000000, 0.000000)">
                <mask id="mask-4" fill="white">
                    <use xlink:href="#path-3"></use>
                </mask>
                <g id="Clip-13"></g>
                <path d="M4.73936254,39.652671 L2.01016059,14.1193997 L10.2416362,13.2025779 L12.9716818,38.737571 L4.73936254,39.652671 Z M9.58021596,4.43896696 C9.85355798,6.99745928 8.15445049,9.15651 5.64712801,9.4362913 C3.13896189,9.71521173 1.02224853,7.98056771 0.748906515,5.42121452 C0.475564495,2.86358306 2.17551564,0.70281061 4.68368176,0.424751047 C7.19100423,0.144108888 9.30687394,1.87961377 9.58021596,4.43896696 L9.58021596,4.43896696 Z" id="Fill-12" fill="#1D1C1B" mask="url(#mask-4)"></path>
            </g>
            <path d="M144.503767,26.6647509 C143.675004,30.2595721 145.080187,33.707416 148.494824,34.5534106 C151.910304,35.3985304 154.666657,32.9830276 155.496263,29.3873315 C156.324181,25.7907606 154.931658,22.28955 151.517022,21.4426804 C148.102385,20.5975606 145.331685,23.0690549 144.503767,26.6647509 M163.606657,31.396022 C161.898495,38.8078802 155.160369,43.5715213 146.889624,41.522587 C138.618034,39.4754024 134.684366,32.0687934 136.392528,24.6560604 C138.100691,17.2424525 144.851476,12.4254446 153.123065,14.4735041 C161.393811,16.5215635 165.31482,23.9841639 163.606657,31.396022" id="Fill-15" fill="#1D1C1B"></path>
            <path d="M205.13119,56.7159818 L195.902349,68 L189.152689,62.9519525 L197.787924,52.394212 C199.850708,49.8722753 200.11172,47.1741953 197.519055,45.2357852 C194.926389,43.297375 191.342051,43.7156108 188.999923,46.5789815 L180.74966,56.6675633 L174,51.6195158 L190.046591,32 L195.27557,35.9110472 L194.727356,38.2568407 C198.04108,38.2551711 201.075458,39.2151934 203.532816,41.0525925 C208.896229,45.0654856 209.431348,51.458399 205.13119,56.7159818" id="Fill-17" fill="#1D1C1B"></path>
            <path d="M64.6842764,222.490548 C61.4036134,216.783682 55.2980741,217.037302 51.6100411,221.624656 L43.2689762,232 L40,229.249466 L55.475881,210 L57.8650051,212.01017 L55.8590424,215.641113 C59.8025162,214.143306 65.0916463,215.430191 68,220.464154 L64.6842764,222.490548 Z" id="Fill-19" fill="#1D1C1B"></path>
            <path d="M82.627537,241.19703 C81.0060113,246.845925 83.513806,251.99791 88.2265456,253.579637 C92.9904478,255.178313 97.7560005,252.466273 99.3775262,246.81827 C100.984198,241.224686 98.4912572,236.01739 93.7281801,234.418713 C89.0154405,232.836987 84.2333838,235.603447 82.627537,241.19703 M103.373164,248.158232 C101.27467,255.469144 94.5888678,259.782537 87.1612073,257.289958 C79.7335468,254.797378 76.533406,247.166196 78.6318996,239.856176 C80.7312184,232.546156 87.3658579,228.215813 94.7935184,230.708392 C102.220354,233.200079 105.472482,240.849104 103.373164,248.158232" id="Fill-21" fill="#1D1C1B"></path>
            <g id="Group-25" transform="translate(122.000000, 228.000000)">
                <mask id="mask-6" fill="white">
                    <use xlink:href="#path-5"></use>
                </mask>
                <g id="Clip-24"></g>
                <path d="M19.2245356,7.14292332 L19.5335971,10.8470913 L10.8947901,11.611999 L12.0291203,25.2121606 C12.2776952,28.1975202 14.7203581,30.2643077 18.3122657,28.6098533 L19.8227726,27.9192167 L21.4053662,31.3433739 L19.7482001,32.2141394 C13.9862335,35.0637621 8.38335485,32.0510843 7.8621761,25.8037689 L6.70878848,11.9825012 L1.02139434,12.4861793 L0.712332858,8.78201126 L6.399727,8.2783332 L5.74514638,0.427784881 L9.93031942,0.057282709 L10.5857286,7.90783103 L19.2245356,7.14292332 Z" id="Fill-23" fill="#1D1C1B" mask="url(#mask-6)"></path>
            </g>
            <path d="M169.335774,240.230303 C171.718908,245.100417 176.737868,247.379192 181.379451,244.772715 C185.878062,242.247273 187.129893,236.576604 184.696886,231.604083 C182.263878,226.631562 177.1992,224.508624 172.700589,227.034956 C168.059007,229.641434 166.952641,235.360189 169.335774,240.230303 M181.420181,224.03399 L179.962205,219.559256 L182.737679,218 L194,241.01839 L191.224527,242.577646 L188.643561,238.798388 C188.350968,242.688067 186.075063,246.514522 182.629619,248.449566 C176.121096,252.104155 168.863636,248.990987 165.603556,242.326527 C162.341814,235.661176 164.081576,227.496233 170.589268,223.841643 C174.034712,221.906599 178.242393,222.027706 181.420181,224.03399" id="Fill-26" fill="#1D1C1B"></path>
            <path d="M208.843856,194 L211.757046,196.22512 L205.917598,202.6372 L216.615558,210.808473 C218.964231,212.601973 222.270319,212.290823 223.729528,208.746108 L224.346315,207.258972 L228,208.428576 L227.404991,210.135113 C225.205289,215.951221 218.875372,217.801366 213.961105,214.047623 L203.088911,205.743911 L199.24444,209.965177 L196.331249,207.740057 L200.17572,203.517993 L194,198.801281 L196.829558,195.695368 L203.004407,200.41208 L208.843856,194 Z" id="Fill-28" fill="#1D1C1B"></path>
            <path d="M240.413767,184 L217.921202,175.052384 L219.507435,171.22328 L242,180.170896 L240.413767,184 Z M214.151508,168.235308 C215.704469,168.853116 216.369073,170.489735 215.738572,172.011433 C215.108072,173.533131 213.467772,174.25282 211.914811,173.635012 C210.311942,172.997644 209.597431,171.341462 210.227931,169.819765 C210.858432,168.298067 212.548639,167.597939 214.151508,168.235308 L214.151508,168.235308 Z" id="Fill-30" fill="#1D1C1B"></path>
            <g id="Group-34" transform="translate(224.000000, 126.000000)" fill="#1D1C1B">
                <path d="M13.5239339,22.9075798 C19.1131033,23.1210228 23.1524909,19.379443 23.3448427,14.3378013 C23.5397254,9.24216612 19.797302,5.2027785 14.2081326,4.98849186 C8.67380033,4.7775798 4.57957557,8.51747231 4.38553648,13.6139511 C4.19234104,18.6547492 7.98960163,22.6966678 13.5239339,22.9075798 M14.3718003,0.714570033 C21.6052401,0.991286645 27.320113,6.53236808 27.0163997,14.4778469 C26.7126863,22.4233257 20.5937059,27.4582182 13.3611098,27.1815016 C6.12767003,26.9056287 0.410266124,21.4193844 0.713979479,13.4730619 C1.01769283,5.52758306 7.13836059,0.438697068 14.3718003,0.714570033" id="Fill-32"></path>
            </g>
            <path d="M223.226779,79.6949737 L236.119116,74 L237.802012,78.0823463 L225.263168,83.6214852 C220.511312,85.7208775 218.895224,89.7752086 220.77178,94.3294366 C222.497806,98.51684 227.532118,101.304357 232.638312,99.0491297 L244.317104,93.8899475 L246,97.9722937 L223.299507,108 L222.069048,105.017252 L225.883894,102.527397 C222.096109,101.602019 218.76499,99.1751983 216.995835,94.8836131 C214.386077,88.5504171 217.058415,82.4203317 223.226779,79.6949737" id="Fill-35" fill="#1D1C1B"></path>
        </g>
    </g>
</svg>