<?xml version="1.0" encoding="UTF-8" standalone="no"?>
<svg width="126px" height="131px" viewBox="0 0 126 131" version="1.1" xmlns="http://www.w3.org/2000/svg" xmlns:xlink="http://www.w3.org/1999/xlink">
    <!-- Generator: Sketch 42 (36781) - http://www.bohemiancoding.com/sketch -->
    <title>Page 1</title>
    <desc>Created with Sketch.</desc>
    <defs>
        <polygon id="path-1" points="0 0.074334781 0 12.6298623 17.7396056 12.6298623 17.7396056 0.074334781 1.13079217e-20 0.074334781"></polygon>
        <polygon id="path-3" points="6.48584088 0.197568637 0.360054696 0.197568637 0.360054696 19.8263355 6.48584088 19.8263355 6.48584088 0.197568637"></polygon>
        <polygon id="path-5" points="0.356166429 16.646987 10.7026831 16.646987 10.7026831 0.0286413545 0.356166429 0.0286413545"></polygon>
    </defs>
    <g id="Page-1" stroke="none" stroke-width="1" fill="none" fill-rule="evenodd">
        <g id="HOLDING-PAGE" transform="translate(-657.000000, -323.000000)">
            <g id="Page-1" transform="translate(657.000000, 323.000000)">
                <path d="M8.60278593,88.3249339 C8.56080035,90.4737575 10.2439648,91.7793401 12.225601,90.8463038 L18.2677831,88 L20,91.7116804 L8.77072825,97 L7.42926821,94.1244605 L8.18999702,93.1960184 C6.02961034,92.595016 4.90930207,90.5138522 5.00574419,88.6101907 L8.60278593,88.3249339 Z" id="Fill-1" fill="#1D1C1B"></path>
                <path d="M7.66876938,73.8227423 C9.39343938,73.7213946 10.7403907,72.5698308 10.6435083,70.8160925 C10.5470347,69.0623542 9.08194411,68.0763251 7.35727411,68.1776728 C5.63342168,68.2790206 4.25949044,69.4322735 4.35596404,71.1855895 C4.45284643,72.9397501 5.94450816,73.9240901 7.66876938,73.8227423 M7.12794491,64.0118582 C10.6827518,63.8028285 13.7519204,66.3711493 13.9861551,70.619309 C14.2203897,74.8670464 11.4533143,77.779105 7.89850736,77.9881347 C4.34370045,78.1971644 1.24796072,75.6305327 1.01372609,71.3827953 C0.779491454,67.1350579 3.57272922,64.2213102 7.12794491,64.0118582" id="Fill-3" fill="#1D1C1B"></path>
                <g id="Group-7" transform="translate(0.000000, 43.000000)">
                    <mask id="mask-2" fill="white">
                        <use xlink:href="#path-1"></use>
                    </mask>
                    <g id="Clip-6"></g>
                    <path d="M6.4550352,0.074334781 L9.68324117,1.24419363 L8.28649349,5.44010478 L12.2059811,6.86021245 C13.3336421,7.26887966 14.2093211,6.44806352 14.1822038,5.15025136 L14.16051,4.0935485 L17.6352745,4.00519978 L17.7220497,5.38439721 C17.9840442,9.25302642 15.294846,12.501909 10.9139478,10.9142434 L6.94272876,9.47629189 L5.89308206,12.6298623 L2.66529328,11.4604387 L3.71493999,8.30686826 L-0.000125156602,6.9607472 L1.34363956,2.92543051 L5.05828752,4.27111636 L6.4550352,0.074334781 Z" id="Fill-5" fill="#1D1C1B" mask="url(#mask-2)"></path>
                </g>
                <path d="M20.327141,33.8833421 C21.695263,35.1265923 23.5590115,35.3221598 24.7877797,33.9806893 C26.0165478,32.6383457 25.6497579,30.80752 24.2816359,29.5642698 C22.9135139,28.3214561 21.0282926,28.1062446 19.7999627,29.4481516 C18.5711946,30.7896221 18.959019,32.6400918 20.327141,33.8833421 M20.5707912,25.6166883 L20.0935699,24.4533239 L22.3398842,22 L32,30.7778357 L29.7541239,33.230723 L28.5472667,32.8644706 C28.6287756,34.6276334 27.7085142,36.096572 26.99816,36.8722938 C24.4639353,39.6399225 20.3135562,39.7093315 17.4090358,37.0700439 C14.5049537,34.4311929 14.1723449,30.2884805 16.7065696,27.5212883 C17.4169238,26.74513 18.7999453,25.6974472 20.5707912,25.6166883" id="Fill-8" fill="#1D1C1B"></path>
                <path d="M42.8370855,9.86764541 L44.3032895,13.0823954 L40.3087765,14.9142158 L42.0891363,18.8182724 C42.600823,19.941363 43.8122596,20.033731 44.7198687,19.1230003 L45.4587805,18.3831934 L48,20.9202907 L47.0760375,21.9298637 C44.4986686,24.7777316 40.2601469,24.9944078 38.2706366,20.6311013 L36.4674682,16.6761129 L33.4657737,18.0534312 L32,14.8382496 L35.0016945,13.4613629 L33.3147207,9.76146543 L37.1564593,8 L38.8430028,11.6994659 L42.8370855,9.86764541 Z" id="Fill-10" fill="#1D1C1B"></path>
                <g id="Group-14" transform="translate(53.000000, 0.000000)">
                    <mask id="mask-4" fill="white">
                        <use xlink:href="#path-3"></use>
                    </mask>
                    <g id="Clip-13"></g>
                    <path d="M2.36968127,19.8263355 L1.00508029,7.05969986 L5.12081808,6.60128897 L6.48584088,19.3687855 L2.36968127,19.8263355 Z M4.79010798,2.21948348 C4.92677899,3.49872964 4.07722524,4.578255 2.82356401,4.71814565 C1.56948094,4.85760586 0.511124267,3.99028385 0.374453257,2.71060726 C0.237782248,1.43179153 1.08775782,0.351405305 2.34184088,0.212375523 C3.59550212,0.0720544439 4.65343697,0.939806887 4.79010798,2.21948348 L4.79010798,2.21948348 Z" id="Fill-12" fill="#1D1C1B" mask="url(#mask-4)"></path>
                </g>
                <path d="M72.2518834,13.3323755 C71.8375022,15.1297861 72.5400936,16.853708 74.2474118,17.2767053 C75.955152,17.6992652 77.3333283,16.4915138 77.7481315,14.6936657 C78.1620907,12.8953803 77.465829,11.144775 75.7585108,10.7213402 C74.0511926,10.2987803 72.6658427,11.5345274 72.2518834,13.3323755 M81.8033287,15.698011 C80.9492476,19.4039401 77.5801847,21.7857607 73.4448119,20.7612935 C69.3090171,19.7377012 67.3421832,16.0343967 68.1962642,12.3280302 C69.0503453,8.62122625 72.4257379,6.21272229 76.5615327,7.23675203 C80.6969055,8.26078177 82.6574098,11.9920819 81.8033287,15.698011" id="Fill-15" fill="#1D1C1B"></path>
                <path d="M102.565595,28.3579909 L97.9511744,34 L94.5763446,31.4759763 L98.8939618,26.197106 C99.9253538,24.9361376 100.05586,23.5870977 98.7595273,22.6178926 C97.4631946,21.6486875 95.6710255,21.8578054 94.4999613,23.2894908 L90.3748298,28.3337817 L87,25.8097579 L95.0232956,16 L97.6377849,17.9555236 L97.3636782,19.1284204 C99.0205398,19.1275856 100.537729,19.6075967 101.766408,20.5262963 C104.448115,22.5327428 104.715674,25.7291995 102.565595,28.3579909" id="Fill-17" fill="#1D1C1B"></path>
                <path d="M32.3421382,111.245274 C30.7018067,108.391841 27.649037,108.518651 25.8050206,110.812328 L21.6344881,116 L20,114.624733 L27.7379405,105 L28.9325025,106.005085 L27.9295212,107.820557 C29.9012581,107.071653 32.5458231,107.715095 34,110.232077 L32.3421382,111.245274 Z" id="Fill-19" fill="#1D1C1B"></path>
                <path d="M41.3137685,120.598515 C40.5030056,123.422963 41.756903,125.998955 44.1132728,126.789818 C46.4952239,127.589157 48.8780002,126.233136 49.6887631,123.409135 C50.4920991,120.612343 49.2456286,118.008695 46.8640901,117.209357 C44.5077203,116.418494 42.1166919,117.801723 41.3137685,120.598515 M51.6865818,124.079116 C50.637335,127.734572 47.2944339,129.891269 43.5806037,128.644979 C39.8667734,127.398689 38.266703,123.583098 39.3159498,119.928088 C40.3656092,116.273078 43.6829289,114.107906 47.3967592,115.354196 C51.1101768,116.60004 52.7362412,120.424552 51.6865818,124.079116" id="Fill-21" fill="#1D1C1B"></path>
                <g id="Group-25" transform="translate(61.000000, 114.000000)">
                    <mask id="mask-6" fill="white">
                        <use xlink:href="#path-5"></use>
                    </mask>
                    <g id="Clip-24"></g>
                    <path d="M9.61226781,3.57146166 L9.76679855,5.42354567 L5.44739505,5.80599952 L6.01456016,12.6060803 C6.13884762,14.0987601 7.36017905,15.1321538 9.15613284,14.3049266 L9.9113863,13.9596084 L10.7026831,15.671687 L9.87410006,16.1070697 C6.99311675,17.531881 4.19167742,16.0255421 3.93108805,12.9018844 L3.35439424,5.99125061 L0.51069717,6.24308964 L0.356166429,4.39100563 L3.1998635,4.1391666 L2.87257319,0.21389244 L4.96515971,0.0286413545 L5.29286431,3.95391551 L9.61226781,3.57146166 Z" id="Fill-23" fill="#1D1C1B" mask="url(#mask-6)"></path>
                </g>
                <path d="M84.6678872,120.115151 C85.859454,122.550208 88.3689342,123.689596 90.6897254,122.386357 C92.9390309,121.123636 93.5649463,118.288302 92.3484428,115.802042 C91.1319392,113.315781 88.5996002,112.254312 86.3502946,113.517478 C84.0295034,114.820717 83.4763205,117.680094 84.6678872,120.115151 M90.7100905,112.016995 L89.9811027,109.779628 L91.3688395,109 L97,120.509195 L95.6122633,121.288823 L94.3217803,119.399194 C94.175484,121.344034 93.0375316,123.257261 91.3148096,124.224783 C88.0605482,126.052078 84.4318182,124.495493 82.8017782,121.163263 C81.170907,117.830588 82.0407881,113.748116 85.2946339,111.920822 C87.0173559,110.9533 89.1211964,111.013853 90.7100905,112.016995" id="Fill-26" fill="#1D1C1B"></path>
                <path d="M104.421928,97 L105.878523,98.1125601 L102.958799,101.3186 L108.307779,105.404237 C109.482115,106.300986 111.135159,106.145411 111.864764,104.373054 L112.173158,103.629486 L114,104.214288 L113.702496,105.067557 C112.602644,107.975611 109.437686,108.900683 106.980552,107.023811 L101.544455,102.871956 L99.6222199,104.982589 L98.1656247,103.870029 L100.08786,101.758997 L97,99.4006406 L98.4147791,97.8476838 L101.502204,100.20604 L104.421928,97 Z" id="Fill-28" fill="#1D1C1B"></path>
                <path d="M120.206884,92 L108.960601,87.526192 L109.753717,85.6116401 L121,90.0854482 L120.206884,92 Z M107.075754,84.1176539 C107.852234,84.4265578 108.184536,85.2448677 107.869286,86.0057167 C107.554036,86.7665656 106.733886,87.1264101 105.957406,86.8175062 C105.155971,86.4988218 104.798715,85.6707312 105.113966,84.9098823 C105.429216,84.1490334 106.274319,83.7989695 107.075754,84.1176539 L107.075754,84.1176539 Z" id="Fill-30" fill="#1D1C1B"></path>
                <g id="Group-34" transform="translate(112.000000, 63.000000)" fill="#1D1C1B">
                    <path d="M6.76196694,11.4537899 C9.55655163,11.5605114 11.5762454,9.6897215 11.6724213,7.16890065 C11.7698627,4.62108306 9.89865098,2.60138925 7.10406629,2.49424593 C4.33690016,2.3887899 2.28978779,4.25873616 2.19276824,6.80697557 C2.09617052,9.32737459 3.99480081,11.3483339 6.76196694,11.4537899 M7.18590016,0.357285016 C10.80262,0.495643322 13.6600565,3.26618404 13.5081998,7.23892345 C13.3563432,11.2116629 10.2968529,13.7291091 6.68055489,13.5907508 C3.06383502,13.4528143 0.205133062,10.7096922 0.356989739,6.73653094 C0.508846417,2.76379153 3.56918029,0.219348534 7.18590016,0.357285016" id="Fill-32"></path>
                </g>
                <path d="M111.613389,39.8474869 L118.059558,37 L118.901006,39.0411731 L112.631584,41.8107426 C110.255656,42.8604388 109.447612,44.8876043 110.38589,47.1647183 C111.248903,49.25842 113.766059,50.6521784 116.319156,49.5245648 L122.158552,46.9449737 L123,48.9861469 L111.649754,54 L111.034524,52.508626 L112.941947,51.2636986 C111.048055,50.8010094 109.382495,49.5875991 108.497917,47.4418066 C107.193039,44.2752086 108.529207,41.2101658 111.613389,39.8474869" id="Fill-35" fill="#1D1C1B"></path>
            </g>
        </g>
    </g>
</svg>